<svg version="1.1" xmlns="http://www.w3.org/2000/svg" xmlns:xlink="http://www.w3.org/1999/xlink" x="0px" y="0px"
	viewBox="0 0 72 72" style="enable-background:new 0 0 72 72;" xml:space="preserve">
	<style type="text/css">
		.st0 {
			fill: #F4AA41;
		}

		.st1 {
			fill: #FFFFFF;
		}

		.st2 {
			fill: none;
			stroke: #000000;
			stroke-width: 2;
			stroke-linecap: round;
			stroke-linejoin: round;
			stroke-miterlimit: 10;
		}

		.st3 {
			display: none;
		}

		.st4 {
			display: inline;
			fill: none;
			stroke: #000000;
			stroke-width: 2;
			stroke-linecap: round;
			stroke-linejoin: round;
			stroke-miterlimit: 10;
		}

		.st5 {
			clip-path: url(#SVGID_2_);
		}

		.st6 {
			clip-path: url(#SVGID_2_);
			fill: none;
			stroke: #000000;
			stroke-width: 2;
			stroke-linecap: round;
			stroke-linejoin: round;
			stroke-miterlimit: 10;
		}

		.st7 {
			display: inline;
		}

		.st8 {
			fill: #414042;
		}
	</style>
	<g id="emoji">
		<g id="color">
			<path class="st0" d="M58.6,11.2c0,0-10.4,2.4-15.6,6.7c0,0-9-2.5-13.8,0.2c0,0-9.7-6.7-15.7-6.7c0,0-5,3.8,0.3,21.1
			c0,0-2.7,10.7,1.7,16.3s9.8,9.5,9.8,9.5l8.8,4l4,0.2l9.9-4.4c0,0,6.7-4.8,8.8-9.5C59,43.9,59,34.8,59,34.8l-1-3.3l2.8-11
			L58.6,11.2z" />
			<path class="st1" d="M30.9,47.3c0,0-7.6,2.8-1.4,9.2c0,0-1,4.6,3.8,5.5h5.2c2.1,0,4.6-1.1,3.7-5.4c0,0,7.6-6.4-1.4-9.4l-4.9,2
			L30.9,47.3z" />
		</g>
		<g id="hair">
		</g>
		<g id="skin">
		</g>
		<g id="skin-shadow">
		</g>
		<g id="line">
			<ellipse cx="27.1" cy="38.1" rx="2.3" ry="2.8" />
			<polyline class="st2" points="31.9,47.2 36,50 39.8,47.2 		" />
			<path class="st2" d="M36,50v4.3c0,0-1.1,3.7-5.5,2.9" />
			<path class="st2" d="M15.9,48.5c-4.9-7.3-2-15.9-2-15.9s-5.2-14.9-0.4-21.2c0,0,9.2,1.5,15.7,7.4c4.6-1.9,9.2-2,13.7-0.1
			c6.5-5.9,15.7-7.4,15.7-7.4c4.8,6.4-0.4,21.2-0.4,21.2s2.9,8.6-2,15.9" />
			<path class="st2" d="M14.7,15.1c0,0,12.8,6.2,10.1,11.8" />
			<path class="st2" d="M35.9,49.9v4.3c0,0,1.1,3.7,5.5,2.9" />
			<path class="st2" d="M57.2,15c0,0-12.8,6.2-10.1,11.8" />
			<path class="st2" d="M31.4,60.8c3.9,1.7,5.6,1.8,9.3,0" />
			<g class="st3">
				<path class="st4" d="M24.8,50.9c0,0-9.4-0.5-13.7,7.5" />
				<path class="st4" d="M47.2,54.7c0,0,8.2,2.2,8.7,11.3" />
				<path class="st4" d="M48.1,50.7c0,0,9.4-0.5,13.7,7.5" />
				<path class="st4" d="M25.4,54.7c0,0-8.2,2.2-8.7,11.3" />
			</g>
			<path class="st2" d="M29.2,51.5" />
			<path class="st2" d="M17.4,41.4" />
			<path class="st2" d="M29.2,50.9" />
			<path class="st2" d="M17.4,41.4" />
			<path class="st2" d="M29.2,50" />
			<path class="st2" d="M22,49.6" />
		</g>
		<ellipse cx="44.7" cy="38.1" rx="2.3" ry="2.8" />
		<path class="st2" d="M44.9,39.9c0.8,0,2.6-0.4,3.2-2.4" />
	</g>
	<g id="Ebene_3">
		<path class="st2"
			d="M30.3,52.5c0,0-5.3,4.9-13.2,4.2c3.5,0.7,15.4-2.3,14.2-4.6c-1.2-2.3-4.6,1.3-4.6,1.3s-13.8,12.8-21-11.1" />
		<path class="st2" d="M67.1,42.4c-7.2,23.9-21,11.1-21,11.1s-3.4-3.6-4.6-1.3c-1.2,2.3,10.7,5.3,14.2,4.6
		c-7.9,0.7-13.2-4.2-13.2-4.2" />
		<path class="st2" d="M31.7,51.2" />
		<text transform="matrix(1 0 0 1 -72.7616 -32.3486)"
			style="font-family:'MyriadPro-Regular'; font-size:12px;">https://openmoji.org/library/#search=cat&amp;emoji=1F431</text>
		<line class="st2" x1="36.2" y1="20.9" x2="36.2" y2="28.4" />
		<path class="st2" d="M33,25.9v-4.4C32.2,23.5,32.3,24.7,33,25.9z" />
		<path class="st2" d="M22.1,47.7L19.6,44C19.4,46.7,20.3,47.5,22.1,47.7z" />
		<path class="st2" d="M49.9,47.7l2.5-3.6C52.6,46.7,51.7,47.5,49.9,47.7z" />
		<path class="st2" d="M39.3,25.7v-4.4C40.2,23.3,40,24.5,39.3,25.7z" />
	</g>
	<g id="Ebene_4">
		<text transform="matrix(1 0 0 1 -72.7635 -32.3458)"
			style="font-family:'MyriadPro-Regular'; font-size:12px;">https://openmoji.org/library/#search=cat&amp;emoji=1F431</text>
		<g>
			<defs>
				<rect id="SVGID_1_" x="35.9" width="36.7" height="71" />
			</defs>
			<clipPath id="SVGID_2_">
				<use xlink:href="#SVGID_1_" style="overflow:visible;" />
			</clipPath>
			<g id="color_1_" class="st5">
				<path class="st0" d="M58.6,11.2c0,0-10.4,2.4-15.6,6.7c0,0-9-2.5-13.8,0.2c0,0-9.7-6.7-15.7-6.7c0,0-5,3.8,0.3,21.1
				c0,0-2.7,10.7,1.7,16.3s9.8,9.5,9.8,9.5l8.8,4l4,0.2l9.9-4.4c0,0,6.7-4.8,8.8-9.5C59,43.9,59,34.8,59,34.8l-1-3.3l2.8-11
				L58.6,11.2z" />
				<path class="st1" d="M30.9,47.3c0,0-7.6,2.8-1.4,9.2c0,0-1,4.6,3.8,5.5h5.2c2.1,0,4.6-1.1,3.7-5.4c0,0,7.6-6.4-1.4-9.4l-4.9,2
				L30.9,47.3z" />
			</g>
			<g id="line_1_" class="st5">
				<ellipse cx="27.1" cy="38.1" rx="2.3" ry="2.8" />
				<polyline class="st2" points="31.9,47.2 36,50 39.8,47.2 			" />
				<path class="st2" d="M36,50v4.3c0,0-1.1,3.7-5.5,2.9" />
				<path class="st2" d="M15.9,48.5c-4.9-7.3-2-15.9-2-15.9s-5.2-14.9-0.4-21.2c0,0,9.2,1.5,15.7,7.4c4.6-1.9,9.2-2,13.7-0.1
				c6.5-5.9,15.7-7.4,15.7-7.4c4.8,6.4-0.4,21.2-0.4,21.2s2.9,8.6-2,15.9" />
				<path class="st2" d="M14.7,15.1c0,0,12.8,6.2,10.1,11.8" />
				<path class="st2" d="M35.9,49.9v4.3c0,0,1.1,3.7,5.5,2.9" />
				<path class="st2" d="M57.2,15c0,0-12.8,6.2-10.1,11.8" />
				<path class="st2" d="M31.4,60.8c3.9,1.7,5.6,1.8,9.3,0" />
				<g class="st3">
					<path class="st4" d="M24.8,50.9c0,0-9.4-0.5-13.7,7.5" />
					<path class="st4" d="M47.2,54.7c0,0,8.2,2.2,8.7,11.3" />
					<path class="st4" d="M48.1,50.7c0,0,9.4-0.5,13.7,7.5" />
					<path class="st4" d="M25.4,54.7c0,0-8.2,2.2-8.7,11.3" />
				</g>
				<path class="st2" d="M29.2,51.5" />
				<path class="st2" d="M17.4,41.4" />
				<path class="st2" d="M29.2,50.9" />
				<path class="st2" d="M17.4,41.4" />
				<path class="st2" d="M29.2,50" />
				<path class="st2" d="M22,49.6" />
			</g>
			<path class="st6" d="M26.8,39.9c-0.8,0-2.6-0.4-3.2-2.4" />
			<ellipse class="st5" cx="44.7" cy="38.1" rx="2.3" ry="2.8" />
			<path class="st6"
				d="M30.3,52.5c0,0-5.3,4.9-13.2,4.2c3.5,0.7,15.4-2.3,14.2-4.6c-1.2-2.3-4.6,1.3-4.6,1.3s-13.8,12.8-21-11.1" />
			<path class="st6" d="M67.1,42.4c-7.2,23.9-21,11.1-21,11.1s-3.4-3.6-4.6-1.3c-1.2,2.3,10.7,5.3,14.2,4.6
			c-7.9,0.7-13.2-4.2-13.2-4.2" />
			<path class="st6" d="M31.7,51.2" />
			<line class="st6" x1="36.2" y1="20.9" x2="36.2" y2="28.5" />
			<path class="st6" d="M33,25.9v-4.4C32.2,23.5,32.3,24.7,33,25.9z" />
			<path class="st6" d="M22.1,47.7L19.6,44C19.4,46.7,20.3,47.5,22.1,47.7z" />
			<path class="st6" d="M49.9,47.7l2.5-3.6C52.6,46.7,51.7,47.5,49.9,47.7z" />
			<path class="st6" d="M39.3,25.7v-4.4C40.2,23.3,40,24.5,39.3,25.7z" />
		</g>
	</g>
	<g id="Ebene_2" class="st3">
		<g id="dali" class="st7">
			<g>
				<g>
					<path d="M33.9,51.1c-0.5-0.2-2-0.9-3.7,0c-1.6,0.8-2.8,2.6-4.3,4.2c-0.7,0.8-1.6,1.5-2.6,1.9c-1,0.4-2,0.5-2.9,0.5
					c-1.8-0.1-3.2-0.7-3.7-0.9c-1.1-0.4-4.8-3.1-6.7-6.9c-1.9-3.7-2.3-7.7-2.5-8c0-0.4,0.6,3.6,2.6,7.3c1,1.8,2.4,3.5,3.7,4.7
					c1.3,1.2,2.5,1.8,3,2c0.4,0.2,1.7,0.9,3.6,1.1c0.9,0.1,2,0,3-0.4c1-0.5,1.9-1.2,2.7-2.1c1.6-1.6,3.2-3.5,5-3.8
					C32.9,50.3,33.9,51.2,33.9,51.1z" />
				</g>
				<g>
					<path d="M33.6,51.2c0,0.3-0.2,1.1-1.1,1.7c-0.8,0.6-1.7,1.3-2.6,2c-1.8,1.6-4.1,2.6-4.7,2.7c-0.6,0.2-3.2,0.6-5.3-0.3
					c-2.2-0.7-4.2-1.4-4.4-1.5c-0.2-0.1,1.9,0.5,4.2,1c2.3,0.7,4.7,0.1,5.2,0c0.6,0,3-0.9,5.1-2.5c1-0.8,2.2-1.3,2.9-1.9
					C33.6,51.8,33.6,51.1,33.6,51.2z" />
				</g>
				<g>
					<path d="M32.8,51.3c-0.2,0.2-1.2,0.6-2.1,1.1c-0.9,0.5-1.3,1.4-1.4,1.6c-0.2,0.2-0.8,1.1-1.8,1.6c-1,0.5-1.9,0.3-2,0.4
					c-0.1,0,0.9-0.1,1.6-0.7c0.8-0.5,1.2-1.5,1.4-1.7c0.1-0.2,1-1.3,2.1-1.6C31.8,51.6,32.8,51.4,32.8,51.3z" />
				</g>
				<g>
					<path d="M31.8,52.5c-0.4,0-1.3,0.6-2.4,0.8c-1,0.3-1.7,1.1-1.9,1.3c-0.2,0.2-1,0.9-2,1.5c-1,0.6-2,0.6-2.1,0.6
					c-0.1,0,0.9-0.2,1.7-0.9c0.8-0.7,1.5-1.6,1.7-1.8c0.1-0.2,1.3-1.2,2.6-1.2C30.7,52.8,31.8,52.4,31.8,52.5z" />
				</g>
				<g>
					<path class="st8" d="M32.7,51.1c0.1,0,0.2,0.1,0.3,0.3c0,0.1-0.4,0-0.6,0c-0.5-0.1-0.9-0.1-1-0.1c-0.1,0-0.6-0.1-0.9,0.1
					c-0.4,0.2-0.4,0.7-0.4,0.7c0,0.1,0-0.4,0.3-0.8c0.4-0.3,0.9-0.3,1-0.3c0.1,0,0.6,0.1,1.1,0.2c0.1,0,0.2,0,0.4,0.1
					c0,0,0.1,0,0.1,0.1l-0.1-0.1C32.8,51.2,32.7,51.1,32.7,51.1z" />
				</g>
				<g>
					<path class="st8" d="M33.6,51.5c-0.1-0.1-0.4-0.6-1-0.6c-0.5,0-1,0.2-1.1,0.3c-0.1,0.1-0.6,0.3-1,0.6c-0.4,0.3-0.6,0.8-0.6,0.8
					c0,0,0.1-0.4,0.5-0.8c0.3-0.4,0.8-0.7,1-0.7c0.1-0.1,0.7-0.3,1.3-0.2C33.4,50.9,33.6,51.5,33.6,51.5z" />
				</g>
				<g>
					<path class="st8" d="M33.3,52c-0.3-0.2-1.4,0.4-1.6,0.6c-0.2,0.1-1.3,0.9-1.3,0.9c0,0.1,1.1-0.9,1.2-1c0.1-0.1,0.4-0.3,0.9-0.4
					C32.9,51.9,33.3,52,33.3,52z" />
				</g>
				<g>
					<path class="st8" d="M33,51.5c0,0.1-0.2,0.5-0.5,0.9c-0.3,0.3-0.7,0.5-0.8,0.5c-0.2,0.1-1.7,0.3-1.8,0.4c-0.1,0,1.5-0.4,1.7-0.5
					c0.1,0,0.6-0.2,0.9-0.5C32.9,51.9,33,51.5,33,51.5z" />
				</g>
				<g>
					<path class="st8" d="M33.1,51.6c0.1,0.5-1.4,2.1-1.7,2.2c-0.1,0.1-0.7,0.4-1.3,0.6c-0.6,0.2-1.2,0.1-1.2,0.1
					c-0.1,0,0.5,0.1,1.1-0.1c0.6-0.2,1.1-0.6,1.2-0.7c0.1-0.1,0.7-0.5,1.2-1C32.9,52.3,33.1,51.6,33.1,51.6z" />
				</g>
				<g>
					<path class="st8" d="M30.3,53.5c-0.2,0.2-1.6,1.5-2,1.6c-0.3,0.1-2,0.8-2,1c0,0.1,0.3-0.3,0.8-0.6c0.5-0.3,1-0.5,1.1-0.6
					C28.5,54.9,30.3,53.4,30.3,53.5z" />
				</g>
				<g>
					<path class="st8" d="M30.1,52.4c-0.1,0-0.5-0.2-0.9,0c-0.4,0.1-0.6,0.5-0.7,0.5c-0.2,0.1-1,1.3-1,1.4c-0.1,0,0.6-1.4,0.8-1.5
					c0.1-0.1,0.4-0.4,0.9-0.5C29.7,52.2,30.1,52.4,30.1,52.4z" />
				</g>
				<g>
					<path class="st8" d="M30.4,51.6c-0.3-0.2-1.5,0.7-1.6,0.9c-0.2,0.1-1.1,1.3-1,1.4c-0.1,0,0.7-1.4,0.9-1.5
					c0.1-0.1,0.4-0.4,0.9-0.7C29.9,51.5,30.4,51.6,30.4,51.6z" />
				</g>
				<g>
					<path class="st8" d="M31.2,50.9c-0.3-0.2-1.8,0.5-1.9,0.7c-0.1,0.1-0.5,0.4-0.8,0.7c-0.3,0.3-0.4,0.8-0.4,0.8c0,0,0-0.4,0.3-0.8
					c0.2-0.4,0.6-0.8,0.7-0.8c0.1-0.1,0.5-0.4,1.1-0.6C30.7,50.7,31.2,50.9,31.2,50.9z" />
				</g>
				<g>
					<path class="st8" d="M30.2,53.3c-0.1,0-0.7-0.1-1.1,0c-0.5,0.2-0.8,0.5-0.9,0.6c-0.3,0.1-1.3,1.5-1.2,1.6
					c-0.1,0,0.8-1.7,1.1-1.8c0.1-0.1,0.6-0.5,1.1-0.6C29.7,53.2,30.2,53.4,30.2,53.3z" />
				</g>
				<g>
					<path class="st8"
						d="M27.9,53.4c-0.2,0-1,0.8-1,0.9c-0.1,0.1-0.8,0.9-0.9,1c0,0,0.6-1,0.7-1.1C26.8,54,27.8,53.3,27.9,53.4z" />
				</g>
				<g>
					<path class="st8" d="M28.5,55.2c0.1,0.5-1.6,1.2-1.8,1.2c-0.3,0.1-2,0.1-2.1,0c-0.1,0.1,1.8-0.1,2-0.2c0.1,0,0.7-0.1,1.2-0.3
					C28.2,55.7,28.5,55.2,28.5,55.2z" />
				</g>
				<g>
					<path class="st8" d="M26,55.2c0,0.1-0.1,0.6-0.5,0.9c-0.4,0.2-0.9,0.3-1,0.3c-0.1,0-0.6,0-1,0.2c-0.4,0.1-0.7,0.5-0.7,0.5
					c0,0,0.1-0.4,0.6-0.6c0.4-0.2,0.9-0.3,1-0.3c0.1,0,0.7-0.1,1.1-0.3C25.9,55.7,25.9,55.2,26,55.2z" />
				</g>
				<g>
					<path class="st8" d="M29.9,53.5c-0.1,0.2-0.5,1-1.1,1.6c-0.6,0.6-1.4,1.1-1.6,1.2c-0.2,0.1-1,0.4-1.8,0.7
					c-0.8,0.3-1.4,0.8-1.5,0.9c-0.1,0.1,0.5-0.5,1.3-0.9c0.8-0.4,1.6-0.7,1.8-0.8c0.2-0.1,1.1-0.5,1.7-1.2
					C29.5,54.3,29.9,53.5,29.9,53.5z" />
				</g>
				<g>
					<path class="st8" d="M29.6,53.9c0,0.2,0,1-0.4,1.6c-0.4,0.6-1.1,1-1.3,1c-0.3,0.3-2.8,0.8-2.9,0.8c-0.1,0.1,2.6-0.6,2.8-0.9
					c0.2-0.1,0.9-0.4,1.4-1.1C29.7,54.7,29.6,53.9,29.6,53.9z" />
				</g>
				<g>
					<path class="st8" d="M31.7,51.9c-0.2-0.1-1.3-0.4-2.1,0.2c-0.8,0.5-1.4,1.3-1.6,1.5c-0.1,0.2-0.9,0.9-1.7,1.4
					c-0.8,0.5-1.2,1.4-1.1,1.5c0,0.1,0.1-0.9,1-1.5c0.8-0.6,1.6-1.2,1.7-1.4c0.2-0.2,0.9-1.1,1.9-1.6C30.7,51.4,31.8,51.9,31.7,51.9
					z" />
				</g>
				<g>
					<path class="st8"
						d="M29,52.7c-0.2-0.1-1.1,0-1.7,0.5c-0.7,0.4-1.2,1-1.4,1.1c-0.1,0.1-0.7,0.7-1.1,1.4
					c-0.4,0.7-0.4,1.4-0.3,1.5c0,0.1-0.2-0.7,0.2-1.4c0.3-0.7,0.9-1.4,1.1-1.5c0.1-0.1,0.8-0.8,1.6-1.2C28.1,52.5,29,52.6,29,52.7z" />
				</g>
				<g>
					<path class="st8"
						d="M32.5,51.7c0.1,0.3,0.2,1.5-0.5,2.4c-0.6,0.9-1.6,1.4-1.9,1.6c-0.2,0.2-1.3,0.6-2.3,0.8
					c-1,0.2-2,0.3-2.1,0.3c-0.1,0,0.9-0.1,1.9-0.4c1-0.3,2.1-0.7,2.3-0.9c0.2-0.1,1.4-0.7,2.1-1.6C32.8,52.9,32.5,51.7,32.5,51.7z" />
				</g>
				<g>
					<path class="st8"
						d="M31.5,52.9c0,0.1,0.1,0.4-0.1,0.8c-0.2,0.4-0.6,0.6-1,0.8c-0.8,0.4-1.7,0.5-2,0.6c-0.2,0.1-1.1,0.2-1.9,0.6
					c-0.8,0.3-1.1,1.3-1.1,1.3c0,0.1,0-0.9,0.9-1.3c0.8-0.5,1.8-0.7,2-0.7c0.2-0.1,1.3-0.2,2.2-0.6C31.6,54,31.5,52.8,31.5,52.9z" />
				</g>
				<g>
					<path class="st8" d="M30.7,53.2c-0.2,0.5-2.4,1.1-2.7,1.3c-0.2,0.1-0.8,0.3-1.3,0.6c-0.5,0.4-0.4,1.1-0.4,1.1
					c0,0.1-0.2-0.6,0.3-1.1c0.5-0.5,1.2-0.7,1.3-0.8C28.2,54.2,30.9,53.4,30.7,53.2z" />
				</g>
				<g>
					<path class="st8"
						d="M31.1,52c-0.4,0.4-3.5,1.9-3.9,2.3c-0.2,0.1-1.1,0.6-1.8,1.3c-0.3,0.3-0.6,0.8-0.2,1.1
					c0.3,0.2,0.5,0.3,0.5,0.3c0,0-0.2,0-0.5-0.2c-0.4-0.2-0.4-0.8,0-1.2c0.7-0.8,1.6-1.3,1.8-1.4C27.5,53.8,31.2,52.1,31.1,52z" />
				</g>
				<g>
					<path class="st8"
						d="M30.9,52.6c-0.5,0.2-3.7,0.9-4.1,1.3c-0.2,0.1-1.1,0.5-1.7,1.2c-0.3,0.3-0.6,0.7-0.6,1
					c0,0.4,0.2,0.5,0.2,0.6c0.1,0-0.2-0.1-0.3-0.4c-0.1-0.3,0.2-0.8,0.5-1.1c0.6-0.7,1.5-1.3,1.7-1.3C27.1,53.3,31,52.6,30.9,52.6z" />
				</g>
				<g>
					<path class="st8" d="M31,54c0,0.2,0.1,0.6-0.2,1c-0.2,0.4-0.7,0.9-1.2,1.2c-1,0.6-2.2,0.9-2.5,1c-0.3,0.1-1.5,0.5-2.6,0.4
					c-0.6,0-1.1-0.4-1.5-0.5c-0.4-0.1-0.7,0-0.8,0c0,0,0.2-0.1,0.6,0c0.4,0,0.9,0.3,1.5,0.4c1.2,0.1,2.4-0.4,2.7-0.4
					c0.3-0.1,1.6-0.4,2.8-1.1c0.6-0.3,1-0.8,1.2-1.2C31.1,54.3,31,54,31,54z" />
				</g>
				<g>
					<path class="st8" d="M31.3,53.8c0,0.3-1.2,1.4-1.5,1.5c-0.2,0.2-1.8,0.6-1.8,0.6c-0.1,0,1.6-0.6,1.7-0.7c0.1,0,0.6-0.3,1-0.6
					C31.1,54.3,31.3,53.8,31.3,53.8z" />
				</g>
				<g>
					<path class="st8" d="M27.8,57c0.2-0.6,3.2-2,3.6-2.3c0.2-0.1,1.1-0.5,1.7-1.2c0.6-0.7,0.7-1.6,0.7-1.7c0-0.1,0.1,0.9-0.5,1.6
					c-0.6,0.8-1.5,1.3-1.7,1.4c-0.2,0.1-1.2,0.6-2.1,1C28.5,56.3,27.8,57,27.8,57z" />
				</g>
				<g>
					<path class="st8"
						d="M32.4,53.7c-0.2,0.2,0.1,0.1,0.4-0.1c0.2-0.2,0.4-0.4,0.4-0.5c0-0.1,0.2-0.3,0.3-0.6c0.1-0.3,0-0.6,0-0.6
					c0,0,0.1,0.2,0.1,0.6c0,0.3-0.1,0.6-0.2,0.7c0,0.1-0.3,0.4-0.6,0.5c-0.2,0.1-0.3,0.1-0.4,0.2C32.3,53.7,32.4,53.7,32.4,53.7z" />
				</g>
				<g>
					<path d="M32.6,51.1c0.2,0,1.4,0.3,1.4,1.4c0,1.1-1.2,1.6-1.4,1.6c-0.4,0.1-3.7,0.6-3.4,1.3c0,0.1,0-0.2,0.2-0.4
					c0.2-0.2,0.6-0.4,1.1-0.6c0.9-0.3,1.8-0.6,2-0.7c0.2,0,1.3-0.4,1.3-1.4C33.7,51.3,32.5,51.1,32.6,51.1z" />
				</g>
				<g>
					<path d="M33.2,52c0.1,0.3-0.1,1.5-1,2.3c-0.7,0.9-1.7,1.5-2,1.6c-0.3,0.1-1.4,0.6-2.5,0.6c-1.1,0.1-2.1,0-2.2,0
					c-0.1,0,0.9,0,2-0.2c1.1-0.2,2.2-0.7,2.4-0.8c0.3-0.1,1.4-0.7,2.2-1.6C33.2,53.2,33.2,52,33.2,52z" />
				</g>
				<g>
					<path
						d="M33.6,51.6c-0.2-0.4-1.4-0.7-2.5-0.4c-1.1,0.2-2.1,1-2.3,1.2c-0.2,0.2-1.2,0.9-1.7,1.9c-0.6,1-0.3,2.1-0.3,2.2
					c0,0.1-0.4-1,0-2.2c0.4-1.2,1.4-2.1,1.6-2.3c0.2-0.2,1.4-1,2.8-1.1c0.7-0.1,1.3,0,1.8,0.1C33.4,51.3,33.6,51.6,33.6,51.6z" />
				</g>
				<g>
					<path d="M38.2,51.2c0.5-0.3,1.9-1,3.6-0.3c1.7,0.7,3,2.5,4.6,3.9c0.8,0.7,1.6,1.4,2.5,1.7c0.9,0.3,1.9,0.3,2.7,0.3
					c1.7-0.1,2.9-0.7,3.4-1c1-0.3,4.7-2.7,6.8-6.3c2.1-3.5,2.8-7.5,2.9-7.8c0-0.4-0.4,3.6-2.3,7.5c-1,1.9-2.3,3.7-3.7,5
					c-1.3,1.3-2.6,2-3.1,2.2c-0.5,0.2-1.9,0.9-4,1c-1,0-2.2-0.1-3.3-0.6c-1.1-0.6-2-1.4-2.8-2.3c-1.6-1.7-3.1-3.6-4.7-3.9
					C39.2,50.5,38.2,51.3,38.2,51.2z" />
				</g>
				<g>
					<path d="M38.2,51.2c0,0.4,0.4,1.1,1.3,1.6c0.8,0.5,1.9,1.1,2.8,1.8c1.9,1.4,4.1,2.1,4.7,2.2c0.6,0.2,2.8,0.8,5,0.2
					c2.2-0.4,4.3-0.9,4.5-1c0.2-0.1-1.9,0.6-4.1,1.3c-2.3,0.9-5,0.5-5.5,0.3c-0.6,0-3.3-1.2-5.2-2.9c-1-0.8-2.1-1.5-2.8-2.1
					C38.2,51.9,38.2,51.1,38.2,51.2z" />
				</g>
				<g>
					<path d="M39.1,51.5c0.3,0.1,1.3,0.2,2.3,0.6c1,0.3,1.8,1.2,2,1.5c0.2,0.2,0.5,1.1,1.2,1.8c0.7,0.6,1.7,0.8,1.8,0.9
					c0.1,0-0.9,0.1-1.9-0.4c-1-0.5-1.7-1.5-1.8-1.7c-0.1-0.2-0.7-1.1-1.6-1.7C40.1,51.9,39.1,51.5,39.1,51.5z" />
				</g>
				<g>
					<path d="M40.2,52.7c0.3-0.1,1.4,0.3,2.5,0.3c1.2,0.1,2.2,0.9,2.4,1.1c0.2,0.2,0.9,1.1,1.6,1.8c0.7,0.7,1.7,1.1,1.8,1.1
					c0.1,0-0.9-0.1-1.9-0.7c-1-0.6-1.8-1.4-2-1.6c-0.2-0.2-0.9-1.1-2.1-1.3C41.2,53.1,40.2,52.6,40.2,52.7z" />
				</g>
				<g>
					<path class="st8" d="M39.3,51.1c0,0.1-0.1,0.2-0.3,0.3c0,0,0.4,0,0.5-0.1c0.4-0.1,0.9-0.2,1-0.2c0.1,0,0.6,0,1,0.3
					c0.4,0.3,0.3,0.8,0.4,0.8c0,0.1,0-0.4-0.4-0.7c-0.3-0.3-0.9-0.2-0.9-0.2c-0.1,0-0.6,0.1-1.1,0.1c-0.1,0-0.2,0-0.4,0
					c-0.1,0-0.1,0.1-0.2-0.1l0.1-0.1C39.2,51.2,39.3,51.1,39.3,51.1z" />
				</g>
				<g>
					<path class="st8" d="M38.4,51.5c0-0.1,0.3-0.7,0.9-0.7c0.5-0.1,1.1,0.2,1.2,0.2c0.1,0,0.6,0.3,0.9,0.7c0.4,0.4,0.5,0.8,0.5,0.9
					c0,0-0.1-0.4-0.5-0.8c-0.4-0.4-0.9-0.6-1-0.7c-0.1-0.1-0.6-0.3-1.2-0.3C38.7,51,38.4,51.6,38.4,51.5z" />
				</g>
				<g>
					<path class="st8" d="M38.7,52c0.2-0.2,1.5,0.2,1.6,0.4c0.2,0.1,1.1,1,1.2,1c0,0.1-1.2-0.8-1.3-0.9c-0.1-0.1-0.4-0.3-0.8-0.5
					C39.1,52,38.7,52,38.7,52z" />
				</g>
				<g>
					<path class="st8" d="M39,51.5c0.1,0.1,0.3,0.5,0.6,0.8c0.3,0.3,0.7,0.4,0.8,0.4c0.2,0.1,1.6,0.5,1.7,0.6c0.1,0-1.5-0.3-1.7-0.4
					c-0.1,0-0.6-0.2-0.9-0.6C39.1,52,39,51.5,39,51.5z" />
				</g>
				<g>
					<path class="st8" d="M38.9,51.6c-0.1,0.5,1.5,1.9,1.8,2c0.1,0.1,0.6,0.4,1.2,0.7c0.5,0.3,1.1,0.2,1.2,0.2c0.1,0-0.5,0.1-1.1-0.1
					c-0.6-0.2-1.2-0.5-1.3-0.6c-0.1-0.1-0.7-0.5-1.2-1C39,52.3,38.9,51.6,38.9,51.6z" />
				</g>
				<g>
					<path class="st8" d="M41.7,53.5c0.3,0.2,1.7,1.3,2,1.4c0.3,0.1,1.9,1,1.9,1.2c0,0.1-0.3-0.3-0.8-0.5c-0.5-0.2-1-0.4-1.1-0.5
					C43.4,55,41.7,53.5,41.7,53.5z" />
				</g>
				<g>
					<path class="st8" d="M41.9,52.4c0.1-0.1,0.5-0.2,0.9-0.1c0.4,0.1,0.7,0.4,0.8,0.5c0.2,0.1,0.8,1.4,0.8,1.5
					c0.1,0-0.7-1.3-0.9-1.4c-0.1-0.1-0.4-0.4-0.8-0.6C42.3,52.2,41.9,52.4,41.9,52.4z" />
				</g>
				<g>
					<path class="st8" d="M41.7,51.6c0.1,0,0.6-0.1,1,0.2c0.4,0.2,0.7,0.5,0.8,0.6c0.2,0.1,0.9,1.5,0.9,1.6c0.1,0-0.8-1.3-1-1.4
					c-0.1-0.1-0.4-0.5-0.8-0.7C42.1,51.5,41.7,51.6,41.7,51.6z" />
				</g>
				<g>
					<path class="st8" d="M40.9,50.9c0.1-0.1,0.6-0.1,1.1,0.1c0.5,0.1,0.9,0.4,1,0.5c0.1,0.1,0.5,0.4,0.7,0.8
					c0.3,0.4,0.3,0.8,0.3,0.9c0,0-0.1-0.4-0.4-0.8c-0.3-0.4-0.7-0.7-0.8-0.8c-0.1-0.1-0.5-0.4-1-0.6C41.4,50.8,40.9,50.9,40.9,50.9z
					" />
				</g>
				<g>
					<path class="st8" d="M41.8,53.4c0.1,0,0.6-0.2,1.1-0.1c0.5,0.1,0.9,0.4,1,0.5c0.3,0.1,1.1,1.7,1.1,1.8c0.1,0-0.9-1.6-1.2-1.6
					c-0.1-0.1-0.5-0.5-1-0.6C42.3,53.2,41.8,53.4,41.8,53.4z" />
				</g>
				<g>
					<path class="st8" d="M44.1,53.4c0.2-0.1,1.1,0.6,1.2,0.8c0.1,0.1,0.7,1.1,0.7,1.1c0,0-0.7-0.9-0.8-1
					C45.1,54.2,44.2,53.3,44.1,53.4z" />
				</g>
				<g>
					<path class="st8" d="M43.5,55.2c0,0.5,1.6,1,1.9,1c0.2,0.1,1.9,0.3,2,0.2c0.1,0.1-1.8,0-2-0.1c-0.1,0-0.7-0.1-1.2-0.4
					C43.7,55.7,43.5,55.2,43.5,55.2z" />
				</g>
				<g>
					<path class="st8" d="M46,55.2c0,0.1,0.2,0.6,0.6,0.8c0.4,0.2,0.9,0.2,1,0.2c0.1,0,0.6,0.1,1,0.3c0.4,0.2,0.6,0.6,0.6,0.6
					c0,0-0.2-0.4-0.6-0.5c-0.4-0.2-0.9-0.2-1-0.2c-0.1,0-0.7-0.1-1.1-0.4C46,55.7,46,55.2,46,55.2z" />
				</g>
				<g>
					<path class="st8" d="M42.1,53.5c0.1,0.2,0.6,1,1.2,1.6c0.6,0.6,1.4,1,1.6,1.1c0.2,0.1,1,0.5,1.7,0.8c0.8,0.3,1.4,0.9,1.4,0.9
					c0.1,0.1-0.5-0.5-1.3-0.8c-0.8-0.3-1.7-0.6-1.9-0.8c-0.2-0.1-1.1-0.6-1.7-1.3C42.4,54.4,42.1,53.5,42.1,53.5z" />
				</g>
				<g>
					<path class="st8" d="M42.4,53.9c0,0.2,0,1,0.5,1.5c0.5,0.5,1.1,0.9,1.3,0.9c0.3,0.3,2.7,1,2.8,1c0.1,0.1-2.6-0.5-2.9-0.8
					c-0.2-0.1-0.9-0.5-1.4-1.2C42.3,54.7,42.4,53.9,42.4,53.9z" />
				</g>
				<g>
					<path class="st8"
						d="M40.3,52c0.2-0.2,1.3-0.5,2.2,0.1c0.9,0.5,1.5,1.3,1.7,1.5c0.1,0.2,0.9,0.9,1.6,1.4
					c0.8,0.6,1.1,1.5,1.1,1.6c0,0.1-0.2-0.9-1-1.4c-0.8-0.5-1.7-1.2-1.8-1.4c-0.2-0.2-0.8-1.1-1.8-1.6C41.3,51.5,40.3,52,40.3,52z" />
				</g>
				<g>
					<path class="st8" d="M43,52.7c0.2-0.1,1.1-0.1,1.8,0.4c0.7,0.4,1.3,0.9,1.5,1.1c0.2,0.1,0.7,0.8,1,1.5c0.4,0.7,0.3,1.5,0.2,1.5
					c0,0.1,0.1-0.7-0.3-1.4c-0.4-0.7-1-1.3-1.1-1.4c-0.1-0.1-0.8-0.8-1.5-1.2C43.9,52.6,43,52.7,43,52.7z" />
				</g>
				<g>
					<path class="st8" d="M39.4,51.7c0,0.3-0.1,1.5,0.6,2.3c0.7,0.9,1.7,1.3,1.9,1.5c0.2,0.1,1.2,0.6,2.2,0.9c1,0.3,2,0.4,2.1,0.4
					c0.1,0-0.9,0-2-0.3c-1.1-0.2-2.2-0.7-2.4-0.8c-0.2-0.1-1.4-0.7-2.1-1.7C39.2,52.9,39.5,51.7,39.4,51.7z" />
				</g>
				<g>
					<path class="st8" d="M40.5,52.9c0,0.1,0,0.4,0.1,0.8c0.2,0.3,0.6,0.6,1,0.7c0.8,0.3,1.7,0.4,2,0.5c0.2,0.1,1.1,0.2,1.9,0.7
					c0.8,0.4,1,1.3,1,1.4c0,0.1-0.1-0.8-0.9-1.3c-0.8-0.4-1.8-0.6-2-0.6c-0.2-0.1-1.3-0.2-2.2-0.6c-0.5-0.2-0.8-0.6-0.9-1
					C40.4,53.1,40.5,52.9,40.5,52.9z" />
				</g>
				<g>
					<path class="st8" d="M41.3,53.2c0.2,0.4,2.4,0.9,2.8,1.1c0.2,0.1,0.8,0.3,1.3,0.8c0.5,0.5,0.4,1.2,0.4,1.2
					c0,0.1,0.2-0.6-0.4-1.1c-0.5-0.4-1.2-0.6-1.3-0.7C43.7,54.4,41.1,53.5,41.3,53.2z" />
				</g>
				<g>
					<path class="st8" d="M40.9,52c0.5,0.3,3.5,1.7,4,2.1c0.2,0.1,1.1,0.7,1.7,1.4c0.3,0.3,0.5,0.9,0.2,1.1c-0.3,0.2-0.5,0.3-0.6,0.3
					c0,0,0.2,0,0.4-0.2c0.3-0.2,0.3-0.7,0-1.1c-0.7-0.7-1.6-1.2-1.8-1.3C44.4,54,40.8,52.1,40.9,52z" />
				</g>
				<g>
					<path class="st8"
						d="M41.1,52.6c0.5,0.2,3.7,0.7,4.2,1.1c0.2,0.1,1.1,0.6,1.7,1.3c0.3,0.3,0.6,0.7,0.6,1.1
					c0,0.4-0.3,0.5-0.3,0.5c0,0,0.2-0.1,0.2-0.4c0.1-0.3-0.2-0.7-0.5-1.1c-0.6-0.7-1.5-1.2-1.7-1.2C44.9,53.5,41.1,52.7,41.1,52.6z" />
				</g>
				<g>
					<path class="st8" d="M41,54c0,0.2-0.1,0.6,0.2,1c0.2,0.4,0.7,0.8,1.2,1.1c1,0.6,2.2,0.8,2.5,0.9c0.3,0.1,1.4,0.5,2.6,0.5
					c0.6,0,1.1-0.3,1.5-0.4c0.4-0.1,0.7,0,0.8,0c0,0-0.2-0.1-0.6,0c-0.4,0-0.9,0.4-1.5,0.4c-1.2,0.1-2.5-0.3-2.7-0.4
					c-0.3-0.1-1.6-0.4-2.8-1.1c-0.6-0.3-1-0.8-1.2-1.3C40.9,54.3,41,54,41,54z" />
				</g>
				<g>
					<path class="st8" d="M40.6,53.8c0,0.4,1.3,1.3,1.6,1.3c0.2,0.1,1.7,0.8,1.7,0.8c0.1,0-1.6-0.4-1.8-0.6c-0.1,0-0.6-0.3-0.9-0.7
					C40.8,54.3,40.7,53.8,40.6,53.8z" />
				</g>
				<g>
					<path class="st8" d="M44.3,57c-0.3-0.6-3.3-1.9-3.7-2.1c-0.2-0.1-1.1-0.6-1.6-1.3c-0.6-0.7-0.6-1.7-0.6-1.7c0-0.1,0,0.8,0.6,1.6
					c0.6,0.7,1.5,1.2,1.7,1.3c0.2,0.1,1.2,0.6,2.1,1.1C43.6,56.2,44.3,57,44.3,57z" />
				</g>
				<g>
					<path class="st8" d="M39.6,53.7c0.3,0.1-0.1,0.1-0.4-0.1c-0.3-0.1-0.5-0.4-0.5-0.5c-0.1-0.1-0.2-0.4-0.2-0.7
					c0-0.3,0.1-0.6,0.1-0.6c0,0-0.1,0.2,0,0.5c0,0.3,0.2,0.6,0.2,0.6c0,0.1,0.2,0.4,0.5,0.5C39.4,53.7,39.6,53.7,39.6,53.7
					C39.7,53.8,39.6,53.7,39.6,53.7z" />
				</g>
				<g>
					<path
						d="M39.4,51c-0.2,0-1.3,0.5-1.2,1.4c0.1,0.9,1.1,1.2,1.3,1.2c0.2,0.1,1.1,0.3,1.9,0.7c0.9,0.3,1.5,0.9,1.3,1.1
					c0,0,0-0.2-0.2-0.3c-0.2-0.2-0.6-0.3-1.1-0.5c-0.9-0.2-1.8-0.4-2-0.5c-0.1,0-1.6-0.5-1.4-1.8C38.2,51.1,39.5,51,39.4,51z" />
				</g>
				<g>
					<path d="M38.8,52c-0.1,0.3,0.3,1.5,1.2,2.2c0.8,0.8,1.8,1.3,2.1,1.4c0.3,0.1,1.2,0.6,2.3,0.8c1.1,0.2,2.1,0.3,2.2,0.3
					c0.1,0-0.9,0.1-2.1,0c-1.1-0.1-2.3-0.5-2.6-0.6c-0.3-0.1-1.4-0.8-2.2-1.8C38.7,53.3,38.8,52,38.8,52z" />
				</g>
				<g>
					<path
						d="M38.5,51.7c0.1-0.4,1.3-0.9,2.5-0.6c1.2,0.1,2.3,0.8,2.5,1c0.3,0.2,1.2,1,1.6,2.2c0.5,1.1,0.1,2.2,0,2.3
					c0,0.1,0.3-1-0.2-2c-0.4-1.1-1.4-1.8-1.6-2c-0.2-0.2-1.3-1-2.5-1.2c-0.6-0.1-1.2-0.1-1.7,0C38.7,51.4,38.5,51.7,38.5,51.7z" />
				</g>
			</g>
		</g>
	</g>
</svg>