<?xml version="1.0" standalone="no"?>
<!DOCTYPE svg PUBLIC "-//W3C//DTD SVG 20010904//EN"
 "http://www.w3.org/TR/2001/REC-SVG-20010904/DTD/svg10.dtd">
<svg version="1.0" xmlns="http://www.w3.org/2000/svg"
 width="700.000000pt" height="700.000000pt" viewBox="0 0 700.000000 700.000000"
 preserveAspectRatio="xMidYMid meet">
<metadata>
Created by potrace 1.14, written by Peter Selinger 2001-2017
</metadata>
<g transform="translate(0.000000,700.000000) scale(0.100000,-0.100000)"
fill="#000000" stroke="none">
<path d="M5645 5993 c-602 -137 -1060 -346 -1454 -664 l-40 -31 -78 25 c-192
63 -350 89 -538 88 -77 -1 -153 -3 -170 -5 -16 -2 -52 -7 -79 -10 -83 -11
-226 -45 -328 -77 -85 -28 -100 -30 -117 -18 -10 8 -62 47 -114 87 -303 230
-728 430 -1157 543 -63 17 -126 33 -140 35 -14 3 -39 9 -56 13 -17 5 -48 7
-70 6 -51 -3 -91 -49 -155 -180 -66 -135 -101 -273 -124 -480 -7 -62 -7 -331
0 -405 23 -252 52 -429 107 -660 11 -47 21 -92 23 -100 12 -57 81 -295 89
-309 4 -5 -2 -47 -13 -93 -11 -46 -22 -100 -25 -120 -13 -86 -16 -105 -22
-148 -3 -25 -7 -119 -9 -210 -3 -169 10 -316 39 -441 8 -37 17 -78 20 -90 20
-108 123 -349 202 -471 43 -68 67 -88 102 -88 12 0 42 -26 73 -62 103 -119
154 -174 316 -334 90 -88 163 -163 163 -166 0 -17 -178 -48 -274 -48 -174 0
-259 19 -378 82 -111 60 -253 184 -335 293 -143 189 -208 309 -343 630 -11 25
-71 200 -99 286 -29 90 -59 115 -132 110 -28 -2 -69 -51 -69 -84 0 -107 218
-650 333 -830 20 -31 37 -60 37 -62 0 -3 23 -38 51 -77 197 -279 415 -446 674
-519 154 -43 470 -28 737 35 11 2 49 -20 95 -56 43 -33 85 -63 93 -66 8 -3 62
-27 119 -54 57 -26 105 -48 107 -48 3 0 41 -17 87 -39 45 -21 99 -46 119 -54
30 -13 39 -23 48 -56 13 -51 38 -68 170 -119 162 -62 267 -85 390 -85 122 0
198 16 345 74 119 46 162 72 184 113 12 21 39 39 101 66 47 20 101 44 120 53
19 8 110 49 201 90 163 72 228 106 281 148 l26 22 114 -21 c429 -80 683 -45
941 130 300 203 551 600 741 1170 51 151 54 176 29 218 -20 34 -49 49 -86 45
-60 -7 -71 -24 -137 -217 -229 -667 -506 -1036 -870 -1158 -47 -15 -101 -23
-196 -27 -114 -5 -143 -3 -227 17 l-95 23 117 116 c64 64 149 154 188 201 70
85 183 245 183 262 0 4 6 8 13 8 47 0 179 233 247 438 43 129 74 268 89 402
11 100 6 417 -8 510 -6 36 -13 81 -16 101 -3 19 -14 70 -24 113 l-19 77 25 77
c73 227 157 620 182 847 7 55 14 120 17 144 6 52 7 397 0 426 -2 11 -7 49 -11
85 -21 204 -118 454 -211 548 -32 32 -62 38 -119 25z"/>
</g>
</svg>
